<svg width="48" height="48" viewBox="0 0 48 48" fill="none" xmlns="http://www.w3.org/2000/svg">
<g clip-path="url(#clip0)">
<path d="M3.89519 20.463C3.79768 20.3446 3.75994 20.1879 3.79284 20.038L7.3375 3.88974L6.85429 3.78368L7.3375 3.88974C7.38693 3.66453 7.58397 3.50232 7.81448 3.49707L24.3429 3.12052C24.4963 3.11703 24.6428 3.18415 24.7403 3.30261L44.7697 27.6327C44.9452 27.8459 44.9147 28.161 44.7015 28.3365L24.6283 44.8614C24.4152 45.0369 24.1 45.0063 23.9245 44.7931L3.89519 20.463Z" fill="white" stroke="black"/>
<circle cx="13.3732" cy="10.7355" r="2.5" transform="rotate(-39.4623 13.3732 10.7355)" fill="white" stroke="black"/>
<path d="M20.2172 19.8233L21.5859 21.4244L22.4791 20.689L21.1607 19.0466L20.2172 19.8233ZM26.5598 27.4664L27.9013 29.1573L28.8447 28.3806L27.443 26.7393L26.5598 27.4664ZM24.6584 21.4545L25.1108 20.1222C24.7932 19.9683 24.4371 19.863 24.0424 19.8062C23.6544 19.744 23.2459 19.7659 22.8169 19.8721C22.3946 19.9728 21.9727 20.1966 21.5512 20.5437C21.1296 20.8907 20.8177 21.2822 20.6153 21.7182C20.4197 22.1487 20.3378 22.581 20.3696 23.015C20.3958 23.4424 20.5439 23.82 20.8138 24.1479C21.0838 24.4758 21.3781 24.7106 21.6968 24.8523C22.01 24.9873 22.3264 25.058 22.646 25.0644C22.9655 25.0707 23.2731 25.042 23.5686 24.9783C23.8654 24.9025 24.1255 24.823 24.349 24.74C24.706 24.6145 25.0484 24.5123 25.3762 24.4332C25.7107 24.3487 26.0205 24.3295 26.3054 24.3755C26.5903 24.4216 26.8374 24.5718 27.0467 24.8261C27.212 25.0268 27.315 25.2338 27.3559 25.4471C27.398 25.6482 27.369 25.8517 27.269 26.0575C27.1757 26.2578 27.0086 26.4571 26.7678 26.6554C26.4934 26.8812 26.2024 27.0254 25.8946 27.0879C25.5869 27.1504 25.2579 27.1462 24.9076 27.0753C24.5586 26.9922 24.1865 26.8607 23.7915 26.6808L23.3656 28.0249C23.8048 28.2583 24.2732 28.4115 24.771 28.4844C25.2633 28.5506 25.7523 28.5241 26.2379 28.4049C26.7181 28.2791 27.1589 28.0509 27.5603 27.7204C28.0622 27.3073 28.421 26.8772 28.6367 26.4302C28.8536 25.971 28.9285 25.5165 28.8612 25.0667C28.7952 24.6046 28.5914 24.1662 28.2499 23.7514C27.991 23.4369 27.7144 23.21 27.4201 23.0706C27.1202 22.9245 26.8145 22.8395 26.5028 22.8154C26.1911 22.7914 25.8848 22.8078 25.5837 22.8648C25.2826 22.9219 24.9981 22.9989 24.7301 23.0961C24.4499 23.1921 24.1824 23.2831 23.9278 23.3693C23.6677 23.4487 23.4221 23.5049 23.1911 23.538C22.9668 23.5655 22.7615 23.5548 22.5754 23.506C22.3838 23.4504 22.2163 23.3357 22.0731 23.1617C21.9299 22.9878 21.8422 22.813 21.81 22.6375C21.7844 22.4565 21.8177 22.2719 21.9098 22.0838C22.0019 21.8957 22.1651 21.7053 22.3993 21.5125C22.6268 21.3252 22.8655 21.2129 23.1154 21.1756C23.3598 21.1315 23.6144 21.1408 23.8792 21.2034C24.1385 21.2594 24.3983 21.343 24.6584 21.4545Z" fill="black"/>
</g>
<defs>
<clipPath id="clip0">
<rect width="48" height="48" fill="white"/>
</clipPath>
</defs>
</svg>
