<?xml version="1.0" encoding="utf-8"?>
<!-- Generator: Adobe Illustrator 25.0.1, SVG Export Plug-In . SVG Version: 6.00 Build 0)  -->
<svg version="1.1" id="Layer_1" xmlns="http://www.w3.org/2000/svg" xmlns:xlink="http://www.w3.org/1999/xlink" x="0px" y="0px"
	 viewBox="0 0 24 24" style="enable-background:new 0 0 24 24;" xml:space="preserve">
<style type="text/css">
	.st0{fill:#FFFFFF;}
</style>
<path class="st0" d="M20.1,6.9c0-0.5-0.5-0.9-1-0.9H17c0-2.8-2.2-5-5-5S7,3.2,7,6H4.9c-0.5,0-1,0.4-1,0.9L3,21.9
	c0,0.3,0.1,0.5,0.3,0.8S3.8,23,4.1,23H20c0.3,0,0.5-0.1,0.7-0.3s0.3-0.5,0.3-0.8C21,21.9,20.1,6.9,20.1,6.9z M12,2c2.2,0,4,1.8,4,4
	H8C8,3.8,9.8,2,12,2z M7.1,7H19l0.9,15H4.1L4.9,7 M7,9h1v1H7V9z M16,9h1v1h-1V9z"/>
</svg>
