<svg width="18" height="23" viewBox="0 0 18 23" fill="none" xmlns="http://www.w3.org/2000/svg">
<mask id="path-1-inside-1" fill="white">
<path fill-rule="evenodd" clip-rule="evenodd" d="M4.43948 5.5C4.43948 3.01472 6.4542 1 8.93948 1C11.4248 1 13.4395 3.01472 13.4395 5.5H4.43948ZM3.43948 5.5H1.88239C1.35291 5.5 0.915206 5.91272 0.884114 6.44128L0.00176109 21.4413C-0.0320259 22.0157 0.424664 22.5 1.00004 22.5H16.8789C17.4543 22.5 17.911 22.0157 17.8772 21.4413L16.9949 6.44128C16.9638 5.91272 16.5261 5.5 15.9966 5.5H14.4395C14.4395 2.46243 11.977 0 8.93948 0C5.90192 0 3.43948 2.46243 3.43948 5.5Z"/>
</mask>
<path fill-rule="evenodd" clip-rule="evenodd" d="M4.43948 5.5C4.43948 3.01472 6.4542 1 8.93948 1C11.4248 1 13.4395 3.01472 13.4395 5.5H4.43948ZM3.43948 5.5H1.88239C1.35291 5.5 0.915206 5.91272 0.884114 6.44128L0.00176109 21.4413C-0.0320259 22.0157 0.424664 22.5 1.00004 22.5H16.8789C17.4543 22.5 17.911 22.0157 17.8772 21.4413L16.9949 6.44128C16.9638 5.91272 16.5261 5.5 15.9966 5.5H14.4395C14.4395 2.46243 11.977 0 8.93948 0C5.90192 0 3.43948 2.46243 3.43948 5.5Z" fill="black"/>
<path d="M4.43948 5.5H3.43948V6.5H4.43948V5.5ZM13.4395 5.5V6.5H14.4395V5.5H13.4395ZM3.43948 5.5V6.5H4.43948V5.5H3.43948ZM0.884114 6.44128L-0.11416 6.38256L0.884114 6.44128ZM0.00176109 21.4413L1.00004 21.5L0.00176109 21.4413ZM17.8772 21.4413L16.8789 21.5V21.5L17.8772 21.4413ZM16.9949 6.44128L15.9966 6.5V6.5L16.9949 6.44128ZM14.4395 5.5H13.4395V6.5H14.4395V5.5ZM8.93948 0C5.90192 0 3.43948 2.46243 3.43948 5.5H5.43948C5.43948 3.567 7.00649 2 8.93948 2V0ZM14.4395 5.5C14.4395 2.46243 11.977 0 8.93948 0V2C10.8725 2 12.4395 3.567 12.4395 5.5H14.4395ZM4.43948 6.5H13.4395V4.5H4.43948V6.5ZM1.88239 6.5H3.43948V4.5H1.88239V6.5ZM1.88239 6.5V6.5V4.5C0.823434 4.5 -0.0519767 5.32543 -0.11416 6.38256L1.88239 6.5ZM1.00004 21.5L1.88239 6.5L-0.11416 6.38256L-0.996513 21.3826L1.00004 21.5ZM1.00004 21.5H1.00004L-0.996513 21.3826C-1.06409 22.5313 -0.150707 23.5 1.00004 23.5V21.5ZM16.8789 21.5H1.00004V23.5H16.8789V21.5ZM16.8789 21.5V21.5V23.5C18.0297 23.5 18.9431 22.5313 18.8755 21.3826L16.8789 21.5ZM15.9966 6.5L16.8789 21.5L18.8755 21.3826L17.9931 6.38256L15.9966 6.5ZM15.9966 6.5L15.9966 6.5L17.9931 6.38256C17.9309 5.32543 17.0555 4.5 15.9966 4.5V6.5ZM14.4395 6.5H15.9966V4.5H14.4395V6.5ZM8.93948 1C11.4248 1 13.4395 3.01472 13.4395 5.5H15.4395C15.4395 1.91015 12.5293 -1 8.93948 -1V1ZM4.43948 5.5C4.43948 3.01472 6.4542 1 8.93948 1V-1C5.34963 -1 2.43948 1.91015 2.43948 5.5H4.43948Z" fill="black" mask="url(#path-1-inside-1)"/>
<rect x="3.93945" y="8.5" width="1" height="1" fill="white"/>
<rect x="12.9395" y="8.5" width="1" height="1" fill="white"/>
</svg>
