<svg width="48" height="49" viewBox="0 0 48 49" fill="none" xmlns="http://www.w3.org/2000/svg">
<g clip-path="url(#clip0)">
<path fill-rule="evenodd" clip-rule="evenodd" d="M14 1C11.2386 1 9 3.23858 9 6V23V25V33C9 40.732 15.268 47 23 47H25C32.732 47 39 40.732 39 33V25V23V6C39 3.23858 36.7614 1 34 1C31.2386 1 29 3.23858 29 6V19H19V6C19 3.23858 16.7614 1 14 1Z" fill="white"/>
<circle cx="19" cy="29" r="1.5" fill="white" stroke="black"/>
<circle cx="29" cy="29" r="1.5" fill="white" stroke="black"/>
<rect x="23" y="38" width="1" height="3" fill="black"/>
<rect x="20.6465" y="36.3535" width="1" height="3.08573" transform="rotate(-45 20.6465 36.3535)" fill="black"/>
<rect x="23.707" y="38.8892" width="1" height="3.64218" transform="rotate(-135 23.707 38.8892)" fill="black"/>
<path d="M13.5868 35.9236L3 33.9441" stroke="black"/>
<path d="M33.9088 35.9236L44.4956 33.9441" stroke="black"/>
<path d="M14.4957 40.5733L5 45.6558" stroke="black"/>
<path d="M32.9999 40.5733L42.4956 45.6558" stroke="black"/>
<path fill-rule="evenodd" clip-rule="evenodd" d="M19 6C19 3.23858 16.7614 1 14 1C11.2386 1 9 3.23858 9 6.00001L9 15V16L9 19.8355L9 32.295C9 40.5793 15.7157 47.295 24 47.295C32.2843 47.295 39 40.5793 39 32.2951V19.8355L39 19.1168V18.1168L39 16L39 6C39 3.23858 36.7614 1 34 1C31.2386 1 29 3.23858 29 6.00001V18.1168V19.1168H28.5859C29.512 19.5504 30.3537 20.1111 31.0828 20.7735C31.212 20.8909 31.3378 21.0115 31.4598 21.1352C31.7699 21.4496 32.0562 21.7837 32.3161 22.1352H31.0277H31.0256C30.841 21.9283 30.645 21.7295 30.4386 21.5396C28.8192 20.0499 26.5535 19.1106 24 19.1106C21.4466 19.1106 19.1808 20.0499 17.5614 21.5396C17.355 21.7295 17.1591 21.9283 16.9744 22.1352H16.9724H15.684C15.9438 21.7837 16.2301 21.4496 16.5403 21.1352C16.6623 21.0116 16.788 20.891 16.9172 20.7735C17.6463 20.1111 18.488 19.5504 19.4141 19.1168H19V18.1168V6ZM40 15V16L40 18.1168V19.1168L40 19.8355L40 32.2951C40 41.1316 32.8366 48.295 24 48.295C15.1634 48.295 8 41.1316 8 32.295L8 19.8355L8 19.1168V18.1168V6.00001C8 2.6863 10.6863 0 14 0C17.3137 0 20 2.68629 20 6V18.1168V18.8641C21.2249 18.3795 22.5778 18.1106 24 18.1106C25.4222 18.1106 26.7751 18.3795 28 18.8641V18.1168V6.00001C28 2.6863 30.6863 0 34 0C37.3137 0 40 2.68629 40 6L40 15Z" fill="black"/>
</g>
<defs>
<clipPath id="clip0">
<rect width="48" height="48.295" fill="white"/>
</clipPath>
</defs>
</svg>
