<svg width="23" height="23" viewBox="0 0 23 23" fill="none" xmlns="http://www.w3.org/2000/svg">
<path fill-rule="evenodd" clip-rule="evenodd" d="M22 11.5C22 17.299 17.299 22 11.5 22C5.70101 22 1 17.299 1 11.5C1 5.70101 5.70101 1 11.5 1C17.299 1 22 5.70101 22 11.5ZM23 11.5C23 17.8513 17.8513 23 11.5 23C5.14873 23 0 17.8513 0 11.5C0 5.14873 5.14873 0 11.5 0C17.8513 0 23 5.14873 23 11.5ZM8.00068 8.70711L8.70779 8L11.5359 10.8281L14.364 8.00008L15.0711 8.70718L12.243 11.5352L15.0717 14.364L14.3646 15.0711L11.5359 12.2423L8.70711 15.0711L8 14.364L10.8288 11.5352L8.00068 8.70711Z" fill="black"/>
</svg>
