<svg width="48" height="49" viewBox="0 0 48 49" fill="none" xmlns="http://www.w3.org/2000/svg">
<g clip-path="url(#clip0)">
<path d="M19.6151 14.7394C21.5819 17.9019 21.706 20.4933 21.0119 22.5139C20.3097 24.5584 18.741 26.1026 17.1785 27.0863C15.616 28.0701 13.5498 28.8144 11.4154 28.556C9.30574 28.3005 7.04363 27.0553 5.07676 23.8928C3.09473 20.7059 1.81603 16.2165 1.4398 12.2646C1.2519 10.291 1.29192 8.47879 1.56845 7.05048C1.8503 5.59472 2.35378 4.65767 2.98295 4.26154C3.61213 3.86541 4.66985 3.81951 6.09433 4.20096C7.49194 4.57522 9.12929 5.33134 10.8113 6.36429C14.1792 8.43256 17.633 11.5525 19.6151 14.7394Z" fill="white" stroke="black"/>
<path d="M42.7081 37.3521C40.7601 41.3076 38.2341 43.052 35.7621 43.6053C33.2657 44.164 30.738 43.527 28.7822 42.5519C26.8264 41.5769 24.7915 39.9392 23.7212 37.6023C22.6612 35.2881 22.5107 32.2093 24.4587 28.2538C26.4246 24.2618 29.8731 20.1875 33.4661 17.1106C35.2605 15.574 37.0789 14.2965 38.7512 13.4058C40.3406 12.5592 41.7565 12.0844 42.8756 12.0341C43.5578 12.7346 44.1619 14.0548 44.6092 15.8648C45.0799 17.7695 45.3561 20.1281 45.4023 22.6567C45.495 27.7251 44.6628 33.3828 42.7081 37.3521Z" fill="white" stroke="black"/>
<path d="M10 16.0984C12.8333 17.2722 17.3 27.2666 16.5 37.7305" stroke="black"/>
<path d="M36.5 27.166C35 33.0352 28.5 44.2705 19 46.2828" stroke="black"/>
</g>
<defs>
<clipPath id="clip0">
<rect width="48" height="48.295" fill="white"/>
</clipPath>
</defs>
</svg>
