<svg width="48" height="49" viewBox="0 0 48 49" fill="none" xmlns="http://www.w3.org/2000/svg">
<path d="M14.5 24.5C10.59 19.8668 3 22.415 3 28.9015C3 35.3879 9.9 38.6312 14.5 43.2643C19.1 38.6312 26 35.3879 26 28.9015C26 22.415 18.41 19.8668 14.5 24.5Z" fill="white" stroke="black" stroke-miterlimit="10"/>
<path d="M36.5 9.85088C33.61 6.32084 28 8.26237 28 13.2044C28 18.1465 33.1 20.6175 36.5 24.1475C39.9 20.6175 45 18.1465 45 13.2044C45 8.26237 39.39 6.32084 36.5 9.85088Z" fill="white" stroke="black" stroke-miterlimit="10"/>
<path d="M7 29.1782C7 27.5112 8.34315 26.1598 10 26.1598" stroke="black"/>
</svg>
