<svg width="24" height="24" viewBox="0 0 24 24" fill="none" xmlns="http://www.w3.org/2000/svg">
<mask id="path-1-inside-1" fill="white">
<path fill-rule="evenodd" clip-rule="evenodd" d="M7.50003 6C7.50003 3.51472 9.51475 1.5 12 1.5C14.4853 1.5 16.5 3.51472 16.5 6H7.50003ZM6.50003 6C6.50003 2.96243 8.96246 0.5 12 0.5C15.0376 0.5 17.5 2.96243 17.5 6H19.0571C19.5866 6 20.0243 6.41272 20.0554 6.94128L20.9378 21.9413C20.9715 22.5157 20.5149 23 19.9395 23H4.06058C3.48521 23 3.02852 22.5157 3.06231 21.9413L3.94466 6.94128C3.97575 6.41272 4.41346 6 4.94294 6H6.50003ZM4.06058 22L4.94294 7H19.0571L19.9395 22H4.06058ZM7 9H8V10H7V9ZM17 9H16V10H17V9Z"/>
</mask>
<path fill-rule="evenodd" clip-rule="evenodd" d="M7.50003 6C7.50003 3.51472 9.51475 1.5 12 1.5C14.4853 1.5 16.5 3.51472 16.5 6H7.50003ZM6.50003 6C6.50003 2.96243 8.96246 0.5 12 0.5C15.0376 0.5 17.5 2.96243 17.5 6H19.0571C19.5866 6 20.0243 6.41272 20.0554 6.94128L20.9378 21.9413C20.9715 22.5157 20.5149 23 19.9395 23H4.06058C3.48521 23 3.02852 22.5157 3.06231 21.9413L3.94466 6.94128C3.97575 6.41272 4.41346 6 4.94294 6H6.50003ZM4.06058 22L4.94294 7H19.0571L19.9395 22H4.06058ZM7 9H8V10H7V9ZM17 9H16V10H17V9Z" fill="white"/>
<path d="M7.50003 6H6.50003V7H7.50003V6ZM16.5 6V7H17.5V6H16.5ZM6.50003 6V7H7.50003V6H6.50003ZM17.5 6H16.5V7H17.5V6ZM20.0554 6.94128L19.0571 7V7L20.0554 6.94128ZM20.9378 21.9413L19.9395 22V22L20.9378 21.9413ZM3.06231 21.9413L4.06058 22L3.06231 21.9413ZM3.94466 6.94128L2.94639 6.88256L3.94466 6.94128ZM4.94294 7V6H4.00003L3.94466 6.94128L4.94294 7ZM4.06058 22L3.06231 21.9413L3.00003 23H4.06058V22ZM19.0571 7L20.0554 6.94128L20 6H19.0571V7ZM19.9395 22V23H21L20.9378 21.9413L19.9395 22ZM8 9H9V8H8V9ZM7 9V8H6V9H7ZM8 10V11H9V10H8ZM7 10H6V11H7V10ZM16 9V8H15V9H16ZM17 9H18V8H17V9ZM16 10H15V11H16V10ZM17 10V11H18V10H17ZM12 0.5C8.96246 0.5 6.50003 2.96243 6.50003 6H8.50003C8.50003 4.067 10.067 2.5 12 2.5V0.5ZM17.5 6C17.5 2.96243 15.0376 0.5 12 0.5V2.5C13.933 2.5 15.5 4.067 15.5 6H17.5ZM7.50003 7H16.5V5H7.50003V7ZM12 -0.5C8.41018 -0.5 5.50003 2.41015 5.50003 6H7.50003C7.50003 3.51472 9.51475 1.5 12 1.5V-0.5ZM18.5 6C18.5 2.41015 15.5899 -0.5 12 -0.5V1.5C14.4853 1.5 16.5 3.51472 16.5 6H18.5ZM19.0571 5H17.5V7H19.0571V5ZM21.0537 6.88256C20.9915 5.82543 20.1161 5 19.0571 5V7L19.0571 7L21.0537 6.88256ZM21.936 21.8826L21.0537 6.88256L19.0571 7L19.9395 22L21.936 21.8826ZM19.9395 24C21.0902 24 22.0036 23.0313 21.936 21.8826L19.9395 22V22V24ZM4.06058 24H19.9395V22H4.06058V24ZM2.06403 21.8826C1.99646 23.0313 2.90984 24 4.06058 24V22H4.06058L2.06403 21.8826ZM2.94639 6.88256L2.06403 21.8826L4.06058 22L4.94294 7L2.94639 6.88256ZM4.94294 5C3.88398 5 3.00857 5.82543 2.94639 6.88256L4.94294 7V7V5ZM6.50003 5H4.94294V7H6.50003V5ZM3.94466 6.94128L3.06231 21.9413L5.05886 22.0587L5.94121 7.05872L3.94466 6.94128ZM19.0571 6H4.94294V8H19.0571V6ZM20.9378 21.9413L20.0554 6.94128L18.0589 7.05872L18.9412 22.0587L20.9378 21.9413ZM4.06058 23H19.9395V21H4.06058V23ZM8 8H7V10H8V8ZM9 10V9H7V10H9ZM7 11H8V9H7V11ZM6 9V10H8V9H6ZM16 10H17V8H16V10ZM17 10V9H15V10H17ZM17 9H16V11H17V9ZM16 9V10H18V9H16Z" fill="black" mask="url(#path-1-inside-1)"/>
</svg>
