<svg width="30" height="20" viewBox="0 0 30 20" fill="none" xmlns="http://www.w3.org/2000/svg">
<path fill-rule="evenodd" clip-rule="evenodd" d="M4.47 13.1684C7.71168 9.94921 11.3089 8.37452 14.8683 8.37451C18.4757 8.3745 22.122 9.99189 25.3975 13.2995C22.1559 16.5187 18.5586 18.0934 14.9992 18.0934C11.3918 18.0934 7.74557 16.476 4.47 13.1684ZM3.77605 13.8888C3.76291 13.903 3.74978 13.9173 3.73666 13.9316L3 13.2553C6.57242 9.36382 10.6984 7.37453 14.8683 7.37451C18.7894 7.3745 22.6718 9.13349 26.0915 12.5791C26.1046 12.5649 26.1177 12.5506 26.1309 12.5363L26.8675 13.2126C23.2951 17.1041 19.1691 19.0934 14.9992 19.0934C11.0781 19.0934 7.19575 17.3344 3.77605 13.8888Z" fill="white"/>
<path d="M4 9L1 6" stroke="white"/>
<path d="M8.8742 5.73159L6.85547 2" stroke="white"/>
<path d="M20.8563 5.73159L22.875 2" stroke="white"/>
<path d="M15 5V0.5" stroke="white"/>
<path d="M26 9L29 6" stroke="white"/>
<circle cx="15" cy="13" r="2" fill="white"/>
</svg>
