<svg width="30" height="20" viewBox="0 0 30 20" fill="none" xmlns="http://www.w3.org/2000/svg">
<path fill-rule="evenodd" clip-rule="evenodd" d="M14.9992 18.0934C11.1691 18.0934 7.2951 16.27 3.86752 12.5363L3.13086 13.2126C6.70328 17.1041 10.8293 19.0934 14.9992 19.0934C19.1691 19.0934 23.2951 17.1041 26.8675 13.2126L26.1309 12.5363C22.7033 16.2701 18.8293 18.0934 14.9992 18.0934Z" fill="black"/>
<path fill-rule="evenodd" clip-rule="evenodd" d="M14.8683 8.37451C11.0382 8.37452 7.16424 10.1979 3.73666 13.9316L3 13.2553C6.57242 9.36382 10.6984 7.37453 14.8683 7.37451C19.0382 7.3745 23.1642 9.36377 26.7367 13.2553L26 13.9316C22.5724 10.1978 18.6985 8.3745 14.8683 8.37451Z" fill="black"/>
<path d="M4 9L1 6" stroke="black"/>
<path d="M8.8742 5.73159L6.85547 2" stroke="black"/>
<path d="M20.8563 5.73159L22.875 2" stroke="black"/>
<path d="M15 5V0.5" stroke="black"/>
<path d="M26 9L29 6" stroke="black"/>
<circle cx="15" cy="13" r="2" fill="black"/>
</svg>
